<svg width="255" height="32" viewBox="0 0 255 32" fill="none" xmlns="http://www.w3.org/2000/svg">
<path d="M14.56 31.06C14.42 31.06 14.28 31.04 14.14 31.01C13.23 30.78 12.67 29.85 12.9 28.94L19.73 1.63001C19.96 0.720007 20.89 0.160002 21.8 0.390002C22.71 0.620001 23.27 1.55001 23.04 2.46001L16.21 29.77C16.02 30.55 15.32 31.06 14.56 31.06ZM26.51 24.24C26.07 24.24 25.64 24.07 25.3 23.74C24.63 23.07 24.63 21.99 25.3 21.33L30.92 15.71L25.3 10.09C24.63 9.42 24.63 8.33999 25.3 7.67999C25.97 7.00999 27.05 7.00999 27.71 7.67999L34.54 14.51C35.21 15.18 35.21 16.26 34.54 16.92L27.71 23.75C27.38 24.08 26.94 24.25 26.5 24.25L26.51 24.24ZM9.44 24.24C9 24.24 8.57001 24.07 8.23001 23.74L1.39999 16.91C0.729991 16.24 0.729991 15.16 1.39999 14.5L8.23001 7.67C8.90001 7 9.98001 7 10.64 7.67C11.31 8.34 11.31 9.42 10.64 10.08L5.01999 15.7L10.64 21.32C11.31 21.99 11.31 23.07 10.64 23.73C10.31 24.06 9.86999 24.23 9.42999 24.23L9.44 24.24Z" fill="#2ECC71"/>
<path d="M68.98 2.12V30.67H65.25V17.73H50.71V30.67H46.98V2.12H50.71V14.65H65.25V2.12H68.98Z" fill="white"/>
<path d="M73.95 19.37C73.95 17.08 74.41 15.07 75.34 13.35C76.27 11.6 77.54 10.25 79.15 9.3C80.79 8.34 82.6 7.87 84.6 7.87C86.6 7.87 88.27 8.29 89.72 9.14C91.17 9.99 92.25 11.05 92.96 12.33V8.23H96.73V30.68H92.96V26.5C92.22 27.81 91.12 28.9 89.64 29.78C88.19 30.63 86.5 31.05 84.56 31.05C82.62 31.05 80.76 30.56 79.15 29.58C77.54 28.6 76.27 27.22 75.34 25.44C74.41 23.67 73.95 21.64 73.95 19.38V19.37ZM92.96 19.41C92.96 17.72 92.62 16.24 91.94 14.99C91.26 13.73 90.33 12.78 89.15 12.12C88 11.44 86.73 11.1 85.34 11.1C83.95 11.1 82.68 11.43 81.53 12.08C80.38 12.74 79.47 13.69 78.79 14.95C78.11 16.21 77.77 17.68 77.77 19.37C77.77 21.06 78.11 22.59 78.79 23.88C79.47 25.14 80.39 26.11 81.53 26.79C82.68 27.45 83.95 27.77 85.34 27.77C86.73 27.77 88 27.44 89.15 26.79C90.32 26.11 91.25 25.14 91.94 23.88C92.62 22.6 92.96 21.11 92.96 19.42V19.41Z" fill="white"/>
<path d="M101.63 19.41C101.63 17.09 102.09 15.07 103.02 13.35C103.95 11.6 105.23 10.25 106.87 9.3C108.54 8.34 110.43 7.87 112.56 7.87C115.32 7.87 117.58 8.54 119.36 9.88C121.16 11.22 122.35 13.07 122.92 15.45H118.91C118.53 14.08 117.78 13.01 116.66 12.21C115.57 11.42 114.2 11.02 112.56 11.02C110.43 11.02 108.71 11.76 107.4 13.23C106.09 14.68 105.43 16.74 105.43 19.41C105.43 22.08 106.09 24.2 107.4 25.68C108.71 27.16 110.43 27.89 112.56 27.89C114.2 27.89 115.56 27.51 116.66 26.74C117.75 25.98 118.5 24.88 118.91 23.46H122.92C122.32 25.75 121.12 27.6 119.32 28.99C117.52 30.36 115.27 31.04 112.56 31.04C110.43 31.04 108.53 30.56 106.87 29.61C105.23 28.65 103.95 27.3 103.02 25.56C102.09 23.81 101.63 21.76 101.63 19.42V19.41Z" fill="white"/>
<path d="M140.44 30.67L131.63 20.76V30.67H127.9V0.360001H131.63V18.18L140.27 8.23H145.47L134.9 19.41L145.51 30.67H140.43H140.44Z" fill="white"/>
<path d="M147.59 16.38C147.59 13.59 148.22 11.1 149.47 8.88C150.73 6.64001 152.43 4.89 154.59 3.64C156.77 2.38 159.19 1.75999 161.84 1.75999C164.95 1.75999 167.67 2.50999 169.99 4.00999C172.31 5.50999 174 7.63999 175.07 10.4H170.61C169.82 8.67999 168.67 7.35999 167.17 6.42999C165.7 5.49999 163.92 5.03999 161.85 5.03999C159.78 5.03999 158.07 5.49999 156.48 6.42999C154.9 7.35999 153.65 8.67999 152.75 10.4C151.85 12.09 151.4 14.09 151.4 16.38C151.4 18.67 151.85 20.64 152.75 22.36C153.65 24.05 154.89 25.36 156.48 26.29C158.06 27.22 159.85 27.68 161.85 27.68C163.85 27.68 165.7 27.23 167.17 26.33C168.67 25.4 169.82 24.08 170.61 22.36H175.07C174.01 25.09 172.31 27.21 169.99 28.71C167.67 30.18 164.95 30.92 161.84 30.92C159.19 30.92 156.77 30.31 154.59 29.08C152.43 27.82 150.73 26.09 149.47 23.88C148.21 21.67 147.59 19.17 147.59 16.38Z" fill="white"/>
<path d="M190.41 31.04C188.31 31.04 186.4 30.56 184.68 29.61C182.99 28.65 181.65 27.3 180.67 25.56C179.71 23.79 179.24 21.74 179.24 19.42C179.24 17.1 179.73 15.11 180.71 13.36C181.72 11.59 183.09 10.23 184.81 9.31C186.53 8.35 188.46 7.88 190.59 7.88C192.72 7.88 194.65 8.36 196.37 9.31C198.09 10.24 199.44 11.58 200.43 13.32C201.44 15.07 201.95 17.1 201.95 19.42C201.95 21.74 201.43 23.79 200.39 25.56C199.38 27.31 198 28.66 196.25 29.61C194.5 30.57 192.56 31.04 190.43 31.04H190.41ZM190.41 27.76C191.75 27.76 193 27.45 194.18 26.82C195.35 26.19 196.3 25.25 197.01 23.99C197.75 22.73 198.12 21.2 198.12 19.4C198.12 17.6 197.76 16.07 197.06 14.81C196.35 13.55 195.42 12.63 194.27 12.02C193.12 11.39 191.88 11.08 190.54 11.08C189.2 11.08 187.92 11.39 186.77 12.02C185.65 12.62 184.75 13.55 184.07 14.81C183.39 16.07 183.05 17.6 183.05 19.4C183.05 21.2 183.38 22.77 184.03 24.03C184.71 25.29 185.61 26.23 186.73 26.86C187.85 27.46 189.08 27.76 190.42 27.76H190.41Z" fill="white"/>
<path d="M205.43 19.37C205.43 17.08 205.89 15.07 206.82 13.35C207.75 11.6 209.02 10.25 210.63 9.3C212.27 8.34 214.1 7.87 216.12 7.87C217.87 7.87 219.49 8.28001 220.99 9.10001C222.49 9.89001 223.64 10.94 224.43 12.25V0.369995H228.2V30.68H224.43V26.46C223.69 27.8 222.6 28.9 221.15 29.78C219.7 30.63 218.01 31.05 216.07 31.05C214.13 31.05 212.26 30.56 210.62 29.58C209.01 28.6 207.74 27.22 206.81 25.44C205.88 23.67 205.42 21.64 205.42 19.38L205.43 19.37ZM224.43 19.41C224.43 17.72 224.09 16.24 223.41 14.99C222.73 13.73 221.8 12.78 220.63 12.12C219.48 11.44 218.21 11.1 216.82 11.1C215.43 11.1 214.16 11.43 213.01 12.08C211.86 12.74 210.95 13.69 210.27 14.95C209.59 16.21 209.25 17.68 209.25 19.37C209.25 21.06 209.59 22.59 210.27 23.88C210.95 25.14 211.87 26.11 213.01 26.79C214.16 27.45 215.43 27.77 216.82 27.77C218.21 27.77 219.48 27.44 220.63 26.79C221.8 26.11 222.73 25.14 223.41 23.88C224.09 22.6 224.43 21.11 224.43 19.42V19.41Z" fill="white"/>
<path d="M254.98 18.59C254.98 19.3 254.94 20.05 254.86 20.84H236.92C237.06 23.05 237.81 24.79 239.17 26.04C240.56 27.27 242.24 27.88 244.21 27.88C245.82 27.88 247.16 27.51 248.22 26.77C249.31 26.01 250.08 25 250.51 23.74H254.52C253.92 25.9 252.72 27.66 250.92 29.02C249.12 30.36 246.88 31.03 244.2 31.03C242.07 31.03 240.16 30.55 238.47 29.6C236.8 28.64 235.49 27.29 234.54 25.55C233.58 23.78 233.11 21.73 233.11 19.41C233.11 17.09 233.57 15.05 234.5 13.31C235.43 11.56 236.73 10.22 238.39 9.3C240.08 8.34 242.02 7.87 244.21 7.87C246.4 7.87 248.22 8.32999 249.86 9.25999C251.5 10.19 252.76 11.47 253.63 13.11C254.53 14.72 254.98 16.55 254.98 18.6V18.59ZM251.13 17.81C251.13 16.39 250.82 15.18 250.19 14.16C249.56 13.12 248.7 12.34 247.61 11.83C246.55 11.28 245.36 11.01 244.05 11.01C242.17 11.01 240.56 11.61 239.22 12.81C237.91 14.01 237.16 15.68 236.97 17.81H251.14H251.13Z" fill="white"/>
</svg>
